<?xml version="1.0" encoding="utf-8"?>
<!-- Generator: Adobe Illustrator 28.4.1, SVG Export Plug-In . SVG Version: 6.00 Build 0)  -->
<svg version="1.1" id="Layer_1" xmlns="http://www.w3.org/2000/svg" xmlns:xlink="http://www.w3.org/1999/xlink" x="0px" y="0px"
	 viewBox="0 0 41.27 23.1" style="enable-background:new 0 0 41.27 23.1;" xml:space="preserve">
<style type="text/css">
	.st0{fill:#2D2532;}
</style>
<g>
	<g>
		<path class="st0" d="M29.47,4.38H2.53c-0.5,0-0.91-0.41-0.91-0.91v0c0-0.5,0.41-0.91,0.91-0.91h26.93c0.5,0,0.91,0.41,0.91,0.91v0
			C30.38,3.97,29.97,4.38,29.47,4.38z"/>
	</g>
	<g>
		<path class="st0" d="M29.47,21.31H2.53c-0.5,0-0.91-0.41-0.91-0.91v0c0-0.5,0.41-0.91,0.91-0.91h26.93c0.5,0,0.91,0.41,0.91,0.91
			v0C30.38,20.9,29.97,21.31,29.47,21.31z"/>
	</g>
	<g>
		<path class="st0" d="M39,12.86H2.53c-0.5,0-0.91-0.41-0.91-0.91v0c0-0.5,0.41-0.91,0.91-0.91H39c0.5,0,0.91,0.41,0.91,0.91v0
			C39.92,12.45,39.51,12.86,39,12.86z"/>
	</g>
</g>
</svg>
